<svg width="100%"  height="auto"
viewBox="0 0 1000 220" fill="none" xmlns="http://www.w3.org/2000/svg"  preserveAspectRatio="xMinYMid">
<path d="M98.1 92.68C97.62 89.44 96.54 86.5 94.86 83.86C93.18 81.1 91.08 78.7 88.56 76.66C86.04 74.62 83.16 73.06 79.92 71.98C76.8 70.78 73.5 70.18 70.02 70.18C63.66 70.18 58.26 71.44 53.82 73.96C49.38 76.36 45.78 79.66 43.02 83.86C40.26 87.94 38.22 92.62 36.9 97.9C35.7 103.18 35.1 108.64 35.1 114.28C35.1 119.68 35.7 124.96 36.9 130.12C38.22 135.16 40.26 139.72 43.02 143.8C45.78 147.88 49.38 151.18 53.82 153.7C58.26 156.1 63.66 157.3 70.02 157.3C78.66 157.3 85.38 154.66 90.18 149.38C95.1 144.1 98.1 137.14 99.18 128.5H126.54C125.82 136.54 123.96 143.8 120.96 150.28C117.96 156.76 114 162.28 109.08 166.84C104.16 171.4 98.4 174.88 91.8 177.28C85.2 179.68 77.94 180.88 70.02 180.88C60.18 180.88 51.3 179.2 43.38 175.84C35.58 172.36 28.98 167.62 23.58 161.62C18.18 155.62 14.04 148.6 11.16 140.56C8.28 132.4 6.84 123.64 6.84 114.28C6.84 104.68 8.28 95.8 11.16 87.64C14.04 79.36 18.18 72.16 23.58 66.04C28.98 59.92 35.58 55.12 43.38 51.64C51.3 48.16 60.18 46.42 70.02 46.42C77.1 46.42 83.76 47.44 90 49.48C96.36 51.52 102 54.52 106.92 58.48C111.96 62.32 116.1 67.12 119.34 72.88C122.58 78.64 124.62 85.24 125.46 92.68H98.1Z" fill="black"/>
<path d="M554.1 92.68C553.62 89.44 552.54 86.5 550.86 83.86C549.18 81.1 547.08 78.7 544.56 76.66C542.04 74.62 539.16 73.06 535.92 71.98C532.8 70.78 529.5 70.18 526.02 70.18C519.66 70.18 514.26 71.44 509.82 73.96C505.38 76.36 501.78 79.66 499.02 83.86C496.26 87.94 494.22 92.62 492.9 97.9C491.7 103.18 491.1 108.64 491.1 114.28C491.1 119.68 491.7 124.96 492.9 130.12C494.22 135.16 496.26 139.72 499.02 143.8C501.78 147.88 505.38 151.18 509.82 153.7C514.26 156.1 519.66 157.3 526.02 157.3C534.66 157.3 541.38 154.66 546.18 149.38C551.1 144.1 554.1 137.14 555.18 128.5H582.54C581.82 136.54 579.96 143.8 576.96 150.28C573.96 156.76 570 162.28 565.08 166.84C560.16 171.4 554.4 174.88 547.8 177.28C541.2 179.68 533.94 180.88 526.02 180.88C516.18 180.88 507.3 179.2 499.38 175.84C491.58 172.36 484.98 167.62 479.58 161.62C474.18 155.62 470.04 148.6 467.16 140.56C464.28 132.4 462.84 123.64 462.84 114.28C462.84 104.68 464.28 95.8 467.16 87.64C470.04 79.36 474.18 72.16 479.58 66.04C484.98 59.92 491.58 55.12 499.38 51.64C507.3 48.16 516.18 46.42 526.02 46.42C533.1 46.42 539.76 47.44 546 49.48C552.36 51.52 558 54.52 562.92 58.48C567.96 62.32 572.1 67.12 575.34 72.88C578.58 78.64 580.62 85.24 581.46 92.68H554.1Z" fill="black"/>
<path d="M840.1 92.68C839.62 89.44 838.54 86.5 836.86 83.86C835.18 81.1 833.08 78.7 830.56 76.66C828.04 74.62 825.16 73.06 821.92 71.98C818.8 70.78 815.5 70.18 812.02 70.18C805.66 70.18 800.26 71.44 795.82 73.96C791.38 76.36 787.78 79.66 785.02 83.86C782.26 87.94 780.22 92.62 778.9 97.9C777.7 103.18 777.1 108.64 777.1 114.28C777.1 119.68 777.7 124.96 778.9 130.12C780.22 135.16 782.26 139.72 785.02 143.8C787.78 147.88 791.38 151.18 795.82 153.7C800.26 156.1 805.66 157.3 812.02 157.3C820.66 157.3 827.38 154.66 832.18 149.38C837.1 144.1 840.1 137.14 841.18 128.5H868.54C867.82 136.54 865.96 143.8 862.96 150.28C859.96 156.76 856 162.28 851.08 166.84C846.16 171.4 840.4 174.88 833.8 177.28C827.2 179.68 819.94 180.88 812.02 180.88C802.18 180.88 793.3 179.2 785.38 175.84C777.58 172.36 770.98 167.62 765.58 161.62C760.18 155.62 756.04 148.6 753.16 140.56C750.28 132.4 748.84 123.64 748.84 114.28C748.84 104.68 750.28 95.8 753.16 87.64C756.04 79.36 760.18 72.16 765.58 66.04C770.98 59.92 777.58 55.12 785.38 51.64C793.3 48.16 802.18 46.42 812.02 46.42C819.1 46.42 825.76 47.44 832 49.48C838.36 51.52 844 54.52 848.92 58.48C853.96 62.32 858.1 67.12 861.34 72.88C864.58 78.64 866.62 85.24 867.46 92.68H840.1Z" fill="black"/>
<path d="M876.42 49.48H904.68V102.76L954.9 49.48H990.18L939.96 100.24L995.04 178H959.58L920.88 120.22L904.68 136.6V178H876.42V49.48Z" fill="black"/>
<path d="M618.68 107.62H649.64C656.12 107.62 660.98 106.18 664.22 103.3C667.46 100.42 669.08 95.74 669.08 89.26C669.08 83.02 667.46 78.52 664.22 75.76C660.98 72.88 656.12 71.44 649.64 71.44H618.68V107.62ZM590.42 49.48H659.72C665.48 49.48 670.64 50.44 675.2 52.36C679.88 54.16 683.84 56.68 687.08 59.92C690.44 63.16 692.96 66.94 694.64 71.26C696.44 75.46 697.34 80.02 697.34 84.94C697.34 92.5 695.72 99.04 692.48 104.56C689.36 110.08 684.2 114.28 677 117.16V117.52C680.48 118.48 683.36 119.98 685.64 122.02C687.92 123.94 689.78 126.28 691.22 129.04C692.66 131.68 693.68 134.62 694.28 137.86C695 141.1 695.48 144.34 695.72 147.58C695.84 149.62 695.96 152.02 696.08 154.78C696.2 157.54 696.38 160.36 696.62 163.24C696.98 166.12 697.46 168.88 698.06 171.52C698.78 174.04 699.8 176.2 701.12 178H672.86C671.3 173.92 670.34 169.06 669.98 163.42C669.62 157.78 669.08 152.38 668.36 147.22C667.4 140.5 665.36 135.58 662.24 132.46C659.12 129.34 654.02 127.78 646.94 127.78H618.68V178H590.42V49.48Z" fill="black"/>
<path d="M712.42 49.48H740.68V178H712.42V49.48Z" fill="black"/>
<path d="M178.82 128.32H212.12L195.92 81.16H195.56L178.82 128.32ZM181.52 49.48H210.5L258.56 178H229.22L219.5 149.38H171.44L161.36 178H132.92L181.52 49.48Z" fill="black"/>
<path d="M368.5 129.4C368.5 146.8 363.64 159.76 353.92 168.28C344.2 176.68 330.76 180.88 313.6 180.88C296.2 180.88 282.7 176.68 273.1 168.28C263.62 159.88 258.88 146.92 258.88 129.4V49.48H287.14V129.4C287.14 132.88 287.44 136.3 288.04 139.66C288.64 143.02 289.9 146.02 291.82 148.66C293.74 151.18 296.38 153.28 299.74 154.96C303.22 156.52 307.84 157.3 313.6 157.3C323.68 157.3 330.64 155.08 334.48 150.64C338.32 146.08 340.24 139 340.24 129.4V49.48H368.5V129.4Z" fill="black"/>
<path d="M376.42 49.48H404.68V154.24H467.32V178H376.42V49.48Z" fill="black"/>
</svg>
