<svg width="100%" height="auto" viewBox="0 0 990 220" fill="none" xmlns="http://www.w3.org/2000/svg">
<path d="M40.68 154.24H65.88C69.96 154.24 73.92 153.58 77.76 152.26C81.6 150.94 85.02 148.78 88.02 145.78C91.02 142.66 93.42 138.64 95.22 133.72C97.02 128.8 97.92 122.8 97.92 115.72C97.92 109.24 97.26 103.42 95.94 98.26C94.74 92.98 92.7 88.48 89.82 84.76C86.94 81.04 83.1 78.22 78.3 76.3C73.62 74.26 67.8 73.24 60.84 73.24H40.68V154.24ZM12.42 49.48H67.86C76.14 49.48 83.82 50.8 90.9 53.44C98.1 56.08 104.28 60.04 109.44 65.32C114.72 70.6 118.8 77.2 121.68 85.12C124.68 93.04 126.18 102.34 126.18 113.02C126.18 122.38 124.98 131.02 122.58 138.94C120.18 146.86 116.52 153.7 111.6 159.46C106.8 165.22 100.74 169.78 93.42 173.14C86.22 176.38 77.7 178 67.86 178H12.42V49.48Z" fill="black"/>
<path d="M138.42 49.48H234.54V73.24H166.68V100.78H228.96V122.74H166.68V154.24H235.98V178H138.42V49.48Z" fill="black"/>
<path d="M273.68 101.5H302.3C307.34 101.5 311.48 100.3 314.72 97.9C317.96 95.5 319.58 91.6 319.58 86.2C319.58 83.2 319.04 80.74 317.96 78.82C316.88 76.9 315.44 75.4 313.64 74.32C311.84 73.24 309.74 72.52 307.34 72.16C305.06 71.68 302.66 71.44 300.14 71.44H273.68V101.5ZM245.42 49.48H305.9C312.02 49.48 317.6 50.02 322.64 51.1C327.68 52.18 332 53.98 335.6 56.5C339.2 58.9 341.96 62.14 343.88 66.22C345.92 70.3 346.94 75.34 346.94 81.34C346.94 87.82 345.44 93.22 342.44 97.54C339.56 101.86 335.24 105.4 329.48 108.16C337.4 110.44 343.28 114.46 347.12 120.22C351.08 125.86 353.06 132.7 353.06 140.74C353.06 147.22 351.8 152.86 349.28 157.66C346.76 162.34 343.34 166.18 339.02 169.18C334.82 172.18 329.96 174.4 324.44 175.84C319.04 177.28 313.46 178 307.7 178H245.42V49.48ZM273.68 156.04H303.92C306.68 156.04 309.32 155.8 311.84 155.32C314.36 154.72 316.58 153.82 318.5 152.62C320.42 151.3 321.92 149.56 323 147.4C324.2 145.24 324.8 142.48 324.8 139.12C324.8 132.52 322.94 127.84 319.22 125.08C315.5 122.2 310.58 120.76 304.46 120.76H273.68V156.04Z" fill="black"/>
<path d="M389.1 114.28C389.1 119.68 389.7 124.96 390.9 130.12C392.22 135.16 394.26 139.72 397.02 143.8C399.78 147.88 403.38 151.18 407.82 153.7C412.26 156.1 417.66 157.3 424.02 157.3C430.38 157.3 435.78 156.1 440.22 153.7C444.66 151.18 448.26 147.88 451.02 143.8C453.78 139.72 455.76 135.16 456.96 130.12C458.28 124.96 458.94 119.68 458.94 114.28C458.94 108.64 458.28 103.18 456.96 97.9C455.76 92.62 453.78 87.94 451.02 83.86C448.26 79.66 444.66 76.36 440.22 73.96C435.78 71.44 430.38 70.18 424.02 70.18C417.66 70.18 412.26 71.44 407.82 73.96C403.38 76.36 399.78 79.66 397.02 83.86C394.26 87.94 392.22 92.62 390.9 97.9C389.7 103.18 389.1 108.64 389.1 114.28ZM360.84 114.28C360.84 104.68 362.28 95.8 365.16 87.64C368.04 79.36 372.18 72.16 377.58 66.04C382.98 59.92 389.58 55.12 397.38 51.64C405.3 48.16 414.18 46.42 424.02 46.42C433.98 46.42 442.86 48.16 450.66 51.64C458.46 55.12 465.06 59.92 470.46 66.04C475.86 72.16 480 79.36 482.88 87.64C485.76 95.8 487.2 104.68 487.2 114.28C487.2 123.64 485.76 132.4 482.88 140.56C480 148.6 475.86 155.62 470.46 161.62C465.06 167.62 458.46 172.36 450.66 175.84C442.86 179.2 433.98 180.88 424.02 180.88C414.18 180.88 405.3 179.2 397.38 175.84C389.58 172.36 382.98 167.62 377.58 161.62C372.18 155.62 368.04 148.6 365.16 140.56C362.28 132.4 360.84 123.64 360.84 114.28Z" fill="black"/>
<path d="M521.68 107.62H552.64C559.12 107.62 563.98 106.18 567.22 103.3C570.46 100.42 572.08 95.74 572.08 89.26C572.08 83.02 570.46 78.52 567.22 75.76C563.98 72.88 559.12 71.44 552.64 71.44H521.68V107.62ZM493.42 49.48H562.72C568.48 49.48 573.64 50.44 578.2 52.36C582.88 54.16 586.84 56.68 590.08 59.92C593.44 63.16 595.96 66.94 597.64 71.26C599.44 75.46 600.34 80.02 600.34 84.94C600.34 92.5 598.72 99.04 595.48 104.56C592.36 110.08 587.2 114.28 580 117.16V117.52C583.48 118.48 586.36 119.98 588.64 122.02C590.92 123.94 592.78 126.28 594.22 129.04C595.66 131.68 596.68 134.62 597.28 137.86C598 141.1 598.48 144.34 598.72 147.58C598.84 149.62 598.96 152.02 599.08 154.78C599.2 157.54 599.38 160.36 599.62 163.24C599.98 166.12 600.46 168.88 601.06 171.52C601.78 174.04 602.8 176.2 604.12 178H575.86C574.3 173.92 573.34 169.06 572.98 163.42C572.62 157.78 572.08 152.38 571.36 147.22C570.4 140.5 568.36 135.58 565.24 132.46C562.12 129.34 557.02 127.78 549.94 127.78H521.68V178H493.42V49.48Z" fill="black"/>
<path d="M645.82 128.32H679.12L662.92 81.16H662.56L645.82 128.32ZM648.52 49.48H677.5L725.56 178H696.22L686.5 149.38H638.44L628.36 178H599.92L648.52 49.48Z" fill="black"/>
<path d="M837.58 49.48H809.32V98.8H757.3V49.48H729.04V178H757.3V122.56H809.32V178H837.58V49.48Z" fill="black"/>
</svg>
