<svg width="100%" height="auto"
viewBox="0 0 1000 220"  fill="none" xmlns="http://www.w3.org/2000/svg"  preserveAspectRatio="xMinYMid">
<path d="M40.68 154.24H65.88C69.96 154.24 73.92 153.58 77.76 152.26C81.6 150.94 85.02 148.78 88.02 145.78C91.02 142.66 93.42 138.64 95.22 133.72C97.02 128.8 97.92 122.8 97.92 115.72C97.92 109.24 97.26 103.42 95.94 98.26C94.74 92.98 92.7 88.48 89.82 84.76C86.94 81.04 83.1 78.22 78.3 76.3C73.62 74.26 67.8 73.24 60.84 73.24H40.68V154.24ZM12.42 49.48H67.86C76.14 49.48 83.82 50.8 90.9 53.44C98.1 56.08 104.28 60.04 109.44 65.32C114.72 70.6 118.8 77.2 121.68 85.12C124.68 93.04 126.18 102.34 126.18 113.02C126.18 122.38 124.98 131.02 122.58 138.94C120.18 146.86 116.52 153.7 111.6 159.46C106.8 165.22 100.74 169.78 93.42 173.14C86.22 176.38 77.7 178 67.86 178H12.42V49.48Z" fill="black"/>
<path d="M135.42 49.48H231.54V73.24H163.68V100.78H225.96V122.74H163.68V154.24H232.98V178H135.42V49.48Z" fill="black"/>
<path d="M241.42 49.48H337.54V73.24H269.68V100.78H331.96V122.74H269.68V154.24H338.98V178H241.42V49.48Z" fill="black" className=""/>
</svg>
